<?xml version="1.0" encoding="utf-8"?>
<!-- Generator: Adobe Illustrator 18.0.0, SVG Export Plug-In . SVG Version: 6.00 Build 0)  -->
<!DOCTYPE svg PUBLIC "-//W3C//DTD SVG 1.1 Tiny//EN" "http://www.w3.org/Graphics/SVG/1.1/DTD/svg11-tiny.dtd">
<svg version="1.1" baseProfile="tiny" id="Layer_1" xmlns="http://www.w3.org/2000/svg" xmlns:xlink="http://www.w3.org/1999/xlink"
	 x="0px" y="0px" viewBox="0 0 600 427" xml:space="preserve">
<g>
	<path fill="#FFFFFF" d="M148.9,355.3C94,394.5,29.2,397.2,7.1,362.9c-20.3-31.6,4.6-82.7,53.2-115.4
		c47.5-31.9,105.2-37.9,131.4-12.3C220.1,262.9,202.4,317.1,148.9,355.3z M195.1,108.3c24.8,19.7,82.2,12.3,125.7-17.2
		c42.6-28.8,51.6-65.2,22.9-80.9c-27-14.7-78.5-6.1-117.3,18.9C186.9,54.7,171.9,89.9,195.1,108.3z M389.5,255.7
		c-21.5-16.9-53.3-21.8-86.1-16c11.4-4.8,22.6-10.9,33.1-18.4c48.6-34.7,58-81.2,24.6-103.2c-31.1-20.4-89.5-12.6-133.2,16.8
		c-13.9,9.4-25.1,20.1-33.2,31.2c15.2-22.5,16.1-44.6,0-57.4c-23.2-18.4-74.1-11.1-115.9,15.8C36.2,152,15.2,192,33.9,214.7
		c20.1,24.4,76.6,18.9,123.9-13.2c14.4-9.8,25.9-20.6,34-31.4c-15.3,23.4-16.7,48,0.4,64.7c16.2,15.8,44.8,20.7,75.5,15.4
		c-11.3,4.8-22.3,10.7-32.6,18c-51.3,36.3-71.1,93.9-40.6,130.4c33.3,39.9,111.1,38,169.2-6.5C420.3,349,429.6,287.2,389.5,255.7z
		 M566.6,125.8c-27.3-14.8-65.7-16.3-101.7-6.7c16.6-5.2,32.8-12.9,46.9-23c44.2-31.6,46.7-71.4,8.9-88.4
		c-35.2-15.9-94.1-6.4-134.4,20.7c-41.2,27.7-51.5,66-20.2,86.3c21.7,14.1,57.2,15.7,91.8,6.4c-16.8,5.2-32.9,12.8-46.9,22.7
		c-46.8,33.1-57.8,82.4-20.9,111.4c40.1,31.5,118.8,26,171-13.9C611.8,202.5,612.2,150.4,566.6,125.8z"/>
</g>
<g>
</g>
<g>
</g>
<g>
</g>
<g>
</g>
<g>
</g>
<g>
</g>
</svg>
